{"title":"Fast &amp; Furious 6(2013)MPEG-4[DaScubaDude]","uid":13422450,"size":1308077909,"categoryP":"video","categoryS":"movies","magnet":"?xt=urn:btih:16ad37544ef68e97c28e60cadcac9e93b7b33f74&amp;dn=Fast+%26amp%3B+Furious+6%282013%29MPEG-4%5BDaScubaDude%5D&amp;tr=udp%3A%2F%2Ftracker.leechers-paradise.org%3A6969&amp;tr=udp%3A%2F%2Fzer0day.ch%3A1337&amp;tr=udp%3A%2F%2Fopen.demonii.com%3A1337&amp;tr=udp%3A%2F%2Ftracker.coppersurfer.tk%3A6969&amp;tr=udp%3A%2F%2Fexodus.desync.com%3A6969","seeders":2,"leechers":0,"uploader":"dascuba","files":1,"time":1454559846,"description":"Fast &amp; Furious 6 (2013)\r\nFurious 6 (original title)\r\nPG-13 | 2h 10min | Action, Crime, Thriller | 24 May 2013 (USA)\r\nHobbs has Dominic and Brian reassemble their crew to take down a team of mercenaries: Dominic unexpectedly gets convoluted also facing his presumed deceased girlfriend, Letty.\r\nDirector: Justin Lin\r\nWriters: Chris Morgan, Gary Scott Thompson (characters)\r\nStars: Vin Diesel, Paul Walker, Dwayne Johnson\r\n\r\nGeneral\r\nComplete name                            :Fast &amp; Furious 6FAST_AND_FURIOUS_6_Title6.mp4\r\nFormat                                   : MPEG-4\r\nFormat profile                           : Base Media\r\nCodec ID                                 : isom\r\nFile size                                : 1.22 GiB\r\nDuration                                 : 2h 10mn\r\nOverall bit rate                         : 1 340 Kbps\r\nMovie name                               : FAST_AND_FURIOUS_6\r\nGenre                                    : Action\r\nWriting application                      : Lavf54.6.100\r\n\r\nVideo\r\nID                                       : 1\r\nFormat                                   : AVC\r\nFormat/Info                              : Advanced Video Codec\r\nFormat profile                           :   \r\nFormat settings, CABAC                   : No\r\nFormat settings, ReFrames                : 6 frames\r\nCodec ID                                 : avc1\r\nCodec ID/Info                            : Advanced Video Coding\r\nDuration                                 : 2h 10mn\r\nBit rate                                 : 1 205 Kbps\r\nWidth                                    : 720 pixels\r\nHeight                                   : 404 pixels\r\nDisplay aspect ratio                     : 16:9\r\nFrame rate mode                          : Constant\r\nFrame rate                               : 29.970 fps\r\nColor space                              : YUV\r\nChroma subsampling                       : 4:2:0\r\nBit depth                                : 8 bits\r\nScan type                                : Progressive\r\nBits/(Pixel*Frame)                       : 0.138\r\nStream size                              : 1.10 GiB (90%)\r\n\r\nAudio\r\nID                                       : 2\r\nFormat                                   : AAC\r\nFormat/Info                              : Advanced Audio Codec\r\nFormat profile                           : LC\r\nCodec ID                                 : 40\r\nDuration                                 : 2h 10mn\r\nBit rate mode                            : Constant\r\nBit rate                                 : 128 Kbps\r\nChannel(s)                               : 2 channels\r\nChannel positions                        : Front: L R\r\nSampling rate                            : 44.1 KHz\r\nCompression mode                         : Lossy\r\nStream size                              : 119 MiB (10%)","torrent":{"xt":"urn:btih:16ad37544ef68e97c28e60cadcac9e93b7b33f74","amp;dn":"Fast+%26amp%3B+Furious+6%282013%29MPEG-4%5BDaScubaDude%5D","amp;tr":["udp%3A%2F%2Ftracker.leechers-paradise.org%3A6969","udp%3A%2F%2Fzer0day.ch%3A1337","udp%3A%2F%2Fopen.demonii.com%3A1337","udp%3A%2F%2Ftracker.coppersurfer.tk%3A6969","udp%3A%2F%2Fexodus.desync.com%3A6969"],"infoHash":"16ad37544ef68e97c28e60cadcac9e93b7b33f74","infoHashBuffer":{"type":"Buffer","data":[22,173,55,84,78,246,142,151,194,142,96,202,220,172,158,147,183,179,63,116]},"announce":[],"urlList":[]}}